# xmcd
#
# Track frame offsets: 
#        150
#        25144
#        42822
#        57760
#        76179
#        103026
#        123123
#        147278
#
# Disc length: 2598 seconds
#
# Revision: 0
# Processed by: cddbd v1.5.2PL0 Copyright (c) Steve Scherf et al.
# Submitted via: ExactAudioCopy v1.3
#
DISCID=5b0a2408
DTITLE=Blue Rodeo - The Things We Left Behind [CD2]
DYEAR=2009
DGENRE=Country
TTITLE0=Don't Let The Darkness In Your Head
TTITLE1=Arizona Dust
TTITLE2=In My Bones
TTITLE3=Candice
TTITLE4=Wasted
TTITLE5=You Said
TTITLE6=And When You Wake Up
TTITLE7=Venus Rising
EXTD=
EXTT0=
EXTT1=
EXTT2=
EXTT3=
EXTT4=
EXTT5=
EXTT6=
EXTT7=
PLAYORDER=
